<?xml version="1.0" encoding="UTF-8"?>
<svg id="katman_1" xmlns="http://www.w3.org/2000/svg" version="1.1" viewBox="0 0 1405.9 358.5">
  <!-- Generator: Adobe Illustrator 29.0.0, SVG Export Plug-In . SVG Version: 2.1.0 Build 186)  -->
  <defs>
    <style>
      .st0 {
        fill: #fff;
      }

      .st1 {
        fill: #37a54e;
      }
    </style>
  </defs>
  <path class="st1" d="M142.1,127.3c-14-7.9-29.7-11.9-47.2-11.9s-33.8,4.8-47.8,14.4v-48.8c0-13-10.6-23.6-23.6-23.6h0C10.6,57.3,0,67.9,0,80.9v193.2C0,285.5,9.2,294.7,20.6,294.7s16.1-5.2,19.2-13.1l.5-1.4c15.5,12.9,33.6,19.4,54.6,19.4s33.2-4,47.2-11.9c14-7.9,24.9-18.9,32.7-33,7.8-14,11.7-29.8,11.7-47.2s-3.9-33.2-11.7-47.2c-7.8-14-18.7-25-32.7-33ZM125.2,241.4c-9,9-20.3,13.6-34,13.6s-25-4.5-34.1-13.6c-9-9-13.6-20.3-13.6-33.9s4.5-25.1,13.6-34.1c9-9.1,20.4-13.6,34.1-13.6s25,4.5,34,13.6c9,9,13.5,20.5,13.5,34.2s-4.5,24.9-13.5,33.9Z"/>
  <path class="st1" d="M364.1,273.5c13.3-13.2,3-36.1-15.7-36.1s-12.6,2.2-16.9,6.9c-2.8,3.1-6.2,5.8-10.1,7.9-6.5,3.6-13.7,5.4-21.8,5.4-11.5,0-21-3.2-28.5-9.5-7.5-6.4-12.3-15.5-14.3-27.4h132c.6-4.5.9-9.1.9-13.9,0-16.7-3.7-32-11.2-45.9-7.5-13.9-18.1-24.9-32-33.2-13.9-8.3-29.5-12.4-47-12.4s-32.5,4-46.3,12c-13.8,8-24.7,19-32.5,33.1-7.8,14.1-11.8,29.8-11.8,47s3.9,32.8,11.8,46.8c7.9,14.1,18.7,25.2,32.6,33.2,13.8,8,29.2,12.1,46.1,12.1s38.1-5.6,53.6-16.8c3.9-2.8,7.6-5.9,10.9-9.3ZM273,164.3c7.3-5.8,16.1-8.7,26.5-8.7s19.6,2.8,27,8.5c7.4,5.7,12.7,13.8,16,24.4h-84.5c2.7-10.4,7.7-18.5,15-24.3Z"/>
  <path class="st1" d="M506.4,252.8h-.5c-8.6,0-15.2-2.3-19.9-6.9-4.6-4.6-6.9-11.2-6.9-19.7v-68h28.4c10.5,0,18.9-8.5,18.9-18.9s-8.5-18.9-18.9-18.9h-29.2v-39.3c0-3.5-2.8-6.3-6.3-6.3s-3.4.7-4.6,2l-65.1,69.3c-1.3,1.3-2,3.1-2,5,0,4,3.2,7.2,7.2,7.2h24.3v74.3c0,19.3,5.5,34.6,16.6,45.7,11.1,11.1,26.2,16.6,45.3,16.6h12.5c11.6,0,21-9.4,21-21s-9.4-21-21-21Z"/>
  <path class="st0" d="M718.8,128.2c-13.9-7.9-29.5-11.9-46.8-11.9s-40.3,6.9-56,20.8l-2.7-5.4c-3.3-6.5-9.9-10.6-17.2-10.6h0c-10.6,0-19.2,8.6-19.2,19.2v194.6c0,13,10.6,23.6,23.6,23.6h0c13,0,23.6-10.6,23.6-23.6v-48.8c14.3,9.8,30.3,14.7,47.9,14.7s32.8-4,46.8-12c13.9-8,24.8-19.1,32.7-33.2,7.9-14.1,11.8-29.9,11.8-47.2s-3.9-33.1-11.8-47.2c-7.9-14.1-18.8-25.1-32.7-33ZM702.1,242.6c-9,9-20.3,13.6-34,13.6s-25-4.5-34-13.6c-9-9.1-13.5-20.5-13.5-34.1s4.5-25.1,13.5-34.1c9-9.1,20.3-13.6,34-13.6s25,4.5,34,13.6c9,9,13.5,20.5,13.5,34.2s-4.5,25.2-13.5,34.2Z"/>
  <path class="st0" d="M820.7,116.3c-13,0-23.6,8.3-23.6,18.4v142.5c0,10.2,10.6,18.4,23.6,18.4s23.6-8.3,23.6-18.4v-142.5c0-10.2-10.6-18.4-23.6-18.4Z"/>
  <path class="st0" d="M1031.2,128.2c-13.9-7.9-29.5-11.9-46.8-11.9s-40.3,6.9-56,20.8l-2.7-5.4c-3.3-6.5-9.9-10.6-17.2-10.6-10.6,0-19.2,8.6-19.2,19.2v194.6c0,13,10.6,23.6,23.6,23.6s23.6-10.6,23.6-23.6v-48.8c14.3,9.8,30.3,14.7,47.9,14.7s32.8-4,46.8-12c13.9-8,24.8-19.1,32.7-33.2,7.9-14.1,11.8-29.9,11.8-47.2s-3.9-33.1-11.8-47.2c-7.9-14.1-18.8-25.1-32.7-33ZM1014.5,242.6c-9,9-20.3,13.6-34,13.6s-25-4.5-34-13.6c-9-9.1-13.5-20.5-13.5-34.1s4.5-25.1,13.5-34.1c9-9.1,20.3-13.6,34-13.6s25,4.5,34,13.6,13.5,20.5,13.5,34.2-4.5,25.2-13.5,34.2Z"/>
  <circle class="st0" cx="820.7" cy="74.7" r="23.6" transform="translate(559.4 856.3) rotate(-76.7)"/>
  <path class="st1" d="M1174.8,1.3c-.4-.3-1.1-1-2.2-1.2-.3,0-.5,0-.8-.1-1.7-.1-3.3.8-4,2.3-.7,1.5-.5,3.3.6,4.5v.2c.8.7,1.5,1.4,2.3,2,1,.9,1.9,1.7,2.6,2.6,4.5,5.6,5.3,11.5,2.2,17.5-1.3,2.6-3.2,5-5.2,7.6-.5.7-1,1.4-1.6,2-.6.8-1.4,1.6-2.2,2.5-.7.8-1.5,1.5-2.2,2.4-5.2,6.3-7.7,12.2-8,18.7-.4,8.6,3,16.1,10.4,22.9,0,0,.1.1.2.2.6.6,1.7,1.9,3.6,2,0,0,0,0,.1,0,.8,0,2-.3,3.1-1.4,2.6-2.6-.8-6.6-1-6.8-4.6-5.3-4.6-8.4,0-13.5,1-1.1,2.1-2.2,3.2-3.2l.4-.4c1.8-1.7,3.6-3.4,5.5-5.1,6.4-5.6,10.1-13.1,9.7-19.7-.2-15.8-5.5-27.2-16.8-36Z"/>
  <path class="st1" d="M1153.3,1.3c-.4-.4-1.3-1-2.4-1.2-1.5-.2-3.4.2-4.3,1.7-1,1.5-.7,3.5.2,4.8.5.7,1.1,1.2,1.5,1.5h.2c3.5,3.4,3.2,5.7,2.6,7.2-1,2.5-2.9,4.9-4.6,6.9-2.4,2.9-5.5,6.6-6.1,11.6-.7,5.8,1.5,10.9,6.6,15.2.4.3.9.6,1.4.7.4.1.8.2,1.2.2,1,0,2-.4,2.7-1,1.1-1,1.6-2.4,1.4-3.8,0-.3-.1-.6-.2-.9-.3-1-.9-1.6-1.2-1.9-1.5-1.9-1.4-2.3,0-3.9,1.3-1.4,2.8-2.9,4.7-4.6,3.8-3.4,6.1-8,5.9-11.7-.2-9.3-3.1-15.7-9.5-20.9Z"/>
  <path class="st1" d="M1202.2,35.5c-.4-.3-.9-.5-1.4-.7-1.8-.5-3.7.3-4.7,2-.9,1.6-.6,3.7.7,4.9l.2.2c4.2,3.8,4.6,7.4,1.1,11.8-.6.8-1.3,1.5-2,2.2-.7.7-1.4,1.5-2,2.3-3.4,4.1-4.9,8.3-4.6,12.8.3,4.7,2.5,8.8,6.6,12.2.4.3.8.5,1.3.7.4.1.9.2,1.3.2,1,0,2.1-.4,2.8-1.1,1.1-1.1,1.6-2.6,1.2-4.1,0-.2-.1-.4-.2-.6-.3-.9-.9-1.4-1.1-1.6-1.6-1.9-1.6-2.4,0-4.2,1.1-1.2,2.4-2.5,4.3-4.1,4.2-3.7,6.4-8.5,6.1-13.1,0-8.1-3.6-15.5-9.6-19.7Z"/>
  <path class="st0" d="M1239.3,205.3c0,27.7-21.8,51.2-49.5,51.8-29,.7-52.8-23-52.1-52.1.7-27.7,24.1-49.5,51.8-49.5h6.6c11.9,0,21.5-9.6,21.5-21.5s-9.6-21.5-21.5-21.5h-6.2c-51.8,0-94.9,41.5-95.2,93.3-.3,52.1,42.2,94.5,94.2,94.2,51.8-.3,93.3-43.3,93.3-95.2,0-126.2,123.7-141.9,123.7-141.9-166.6,0-166.6,142.3-166.6,142.3Z"/>
</svg>